<?xml version="1.0" encoding="utf-8"?>
<!-- Generator: Adobe Illustrator 25.0.0, SVG Export Plug-In . SVG Version: 6.00 Build 0)  -->
<svg version="1.1" id="Capa_1" xmlns="http://www.w3.org/2000/svg" xmlns:xlink="http://www.w3.org/1999/xlink" x="0px" y="0px"
	 viewBox="0 0 744.7 594.9" style="enable-background:new 0 0 744.7 594.9;" xml:space="preserve">
<style type="text/css">
	.st0{fill:#5B6B1A;}
	.st1{fill:#748828;}
	.st2{fill:#3C8F7C;}
	.st3{fill:#327F6B;}
	.st4{fill:#E57C0A;}
	.st5{fill:#353535;}
	.st6{fill:#FFFBF3;}
	.st7{opacity:0.6;fill:#E6E6E6;}
	.st8{fill:#E6E6E6;}
	.st9{fill:#F7971E;}
	.st10{fill:#FFD800;}
	.st11{fill:#282828;}
	.st12{fill:#184655;}
	.st13{fill:#DC4437;}
	.st14{fill:#C12925;}
	.st15{fill:#F79C8D;}
	.st16{fill:#F9C38A;}
	.st17{fill:#FFFFFF;}
	.st18{fill:#E5AC7A;}
	.st19{opacity:0.3;fill:#EFBE5E;}
	.st20{fill:#EFBE5E;}
</style>
<g>
	<path class="st0" d="M71.8,271.3c0,0,8.9,19.4,14.9,27.6c6,8.2,11.7,16,16.5,38.8c4.8,22.7,4,25,5.3,30.9c1.3,5.9,9.8,29.7,9.9,34
		c0,4.4,17.2,29.2,21.6,40.8c4.4,11.6,12.2,28.2,11.7,36.7l-2-0.5c0,0-1.6-19.7-15.2-39.6C121,420,123,416.2,107.5,406
		c-15.4-10.2-25.4-38.5-25.4-38.5s-15.7-30.7-14.9-46.7C68,304.9,63.8,290.5,71.8,271.3z"/>
	<path class="st0" d="M92.7,241.4c0,0,0.5,12.7,4.6,20.3c4.1,7.6,7.6,12.2,8.4,20.4c0.7,8.2,3.3,29.3,14.8,39.6
		c11.5,10.3,12.9,41.2,21.6,50.5c8.7,9.3,9.9,16.1,8.3,32.1c-1.6,16-7.1,38.2,5.6,67.2l2.9-7.2c0,0-9.1-23.8-6.9-37.8
		c2.2-14,9.8-35.1,7-45.2c-2.8-10.1,7.6-12.1,1.3-27.4c-6.2-15.3-3.7-20.6-12.2-33.8c0,0-0.9-0.6-3.1-11.8
		c-2.2-11.2-20.3-31.7-28.6-38.7C108.1,262.6,96.1,251.3,92.7,241.4z"/>
	<path class="st1" d="M126.5,304.5c0,0,10,17,10.1,28s-1,19.9,4,34.9c5,15-5,24.5-2.1,32.8c2.9,8.3,3.1,18.1,3,25.5
		c-0.1,7.4,11.4,32.1,13.1,44.5c1.7,12.5-0.5,12.5-0.5,12.5s-1.9-16.5-4.5-21.9c-2.6-5.4-10.7-24.2-12.6-31.5
		c-1.9-7.3-7-11.9-11.4-24.2c-4.4-12.3-10.6-22.7-10.2-40.1C116.1,347.6,109,329.2,126.5,304.5z"/>
	<path class="st1" d="M147.6,471.4c0,0-4.6-21.6-24.2-23.8c-19.6-2.2-31.1,1.7-44.9-14.1c-13.8-15.8-21.9-40.9-26.3-45.2
		c0,0,6.9-3.6,18.5,7.2c11.5,10.8,19.7,19,26.3,25.3c6.7,6.3,12.1,2.2,19.2,6.3c5.9,3.5,13.6,13.5,16.9,18.8
		c1.1,1.7,2.4,3.3,3.9,4.6c1.4,1.3,3,2.8,4,3.9c2.1,2.3,8,17,8,17L147.6,471.4z"/>
	<path class="st2" d="M154.5,467.6c0,0-6.9-26.4-2.3-39.4c4.6-12.9,19.1-22.5,18.5-30.6c-0.6-8.1-9.9-30.1-2.3-46.5
		c0,0,2.9,14.6,5.7,17.8c2.8,3.2,22.3,16.3,18.9,33.6c-3.5,17.3-22.4,21.3-27,26.4c-4.7,5.1-11,5.1-11,8.5c0,3.4-1.3,15.7,0.8,27.8
		L154.5,467.6z"/>
	<path class="st1" d="M146.9,449.9l-9.7-27.9c0,0-5.7-22.4-9-41.2c-3.3-18.7-1.7-76.3-1.7-76.3s10,17,10.1,28c0.1,11-1,19.9,4,34.9
		c5,15-5,24.5-2.1,32.8c2.9,8.3,3.1,18.1,3,25.5c-0.1,7.4,11.4,32.1,13.1,44.5c1,6.8,0.7,9.9,0.3,11.3
		C156.5,470.7,146.9,449.9,146.9,449.9z"/>
	<path class="st1" d="M99.2,433.3c8.6,1.7,16.4,1.1,26.6,8.8c10.3,7.6,16.3,15.8,16.3,15.8s4.6,8.2,6.5,12.6
		c0.3,0.7,0.4,1.1,0.4,1.1l-1.5-0.1c0,0-4.6-21.6-24.2-23.8c-19.6-2.2-31.1,1.7-44.9-14.1c-13.8-15.8-21.9-40.9-26.3-45.2
		c0,0,14.7,11.4,23.8,21.6C85.1,420,90.6,431.5,99.2,433.3z"/>
	<path class="st3" d="M174.1,368.9c2.8,3.2,22.3,16.3,18.9,33.6c-3.5,17.3-22.4,21.3-27,26.4c-4.7,5.1-11,5.1-11,8.5
		c0,3.4-1.3,15.7,0.8,27.8l-0.6,1c-1-4.7-2.4-12-2.9-17.4c-0.8-8.9,0.7-12.6,3.5-19.8c2.9-7.2,20.6-21.9,25.1-29.6
		c4.5-7.7-8.6-20.6-11.5-26.8c-2.9-6.2-1-21.5-1-21.5S171.3,365.7,174.1,368.9z"/>
</g>
<path class="st4" d="M404.2,167.4c-4.3,2.8-8.4,5.7-12.8,8.3c-0.8,0.5-2.3,0.6-3.1,0.1c-5.2-2.8-10.2-5.9-15.4-8.7
	c-1.5-0.8-2.2-1.5-2.1-3.3c0.2-6.2,0.2-12.4,0.3-18.6c0-1,0-2,0-3.8c-9.2-0.9-18.2-1.8-27.5-2.8c-1.5,7.4-3.1,14-4.3,20.7
	c-0.4,2.4-1.2,3.4-3.8,4c-5.3,1.1-10.5,2.9-15.7,4.3c-0.8,0.2-2.1-0.1-2.7-0.7c-4.5-4.4-9-8.8-13.2-13.4c-2-2.2-3.6-2.2-5.8-0.5
	c-0.8,0.7-1.9,1.1-2.8,1.6c-3.8,3-7.5,6-11.3,9c-0.3,0.4-0.5,1-0.9,1.3c-4,3.9-3.5,3-0.7,7.4c3.4,5.3,7,10.6,10,15.3
	c-3.8,7-7.3,13.5-11,20.3c-7.6-0.1-15.5-0.2-23.5-0.3c-2.5,9.1-3.2,18.1-2.8,27.4c7.2,1.5,14.3,3,21.3,4.4c1.3,0.3,1.9,0.6,2.3,2.1
	c1.4,5.9,3,11.8,4.9,17.5c0.5,1.7,0.2,2.5-0.9,3.5c-4.6,4.4-9.1,9-13.6,13.4c-1.1,1.1-1.5,2-0.6,3.6c4,7,9.3,12.8,15.1,18.3
	c1.2,1.1,2,0.7,3.1-0.1c5.1-3.5,10.4-6.8,15.5-10.3c1.5-1,2.4-1.1,4.1-0.1c5.8,3.6,11.7,6.8,18.1,10.5c-0.1,6.9-0.2,14.7-0.3,22.6
	c9.2,2.6,18.3,3.7,27.7,3.1c1.6-7.9,3.2-15.6,4.6-22.6c6.3-2,12.2-3.8,18-5.9c2.2-0.8,3.5-0.6,5,1.1c4.2,4.5,8.5,8.8,12.8,13.1
	c0.9,0.9,1.7,2.2,3.2,0.9c6.2-5.1,12.5-10.1,18.7-15.2c1.3-1.1,1.2-2.2,0.3-3.5c-3.5-5.2-6.8-10.6-10.5-15.7c-1.4-2-0.9-3.3,0.2-5.1
	c2.7-4.6,5.4-9.2,7.6-14.1c0.9-2.1,1.8-2.6,4-2.5c7,0.3,14,0.3,20.9,0.4c2.2-5.2,3.8-21.4,2.8-27.9c-7-1.4-14-2.9-21.1-4.1
	c-1.8-0.3-2.3-1.1-2.7-2.7c-1.4-5.3-3.3-10.5-4.7-15.9c-0.3-0.9,0-2.4,0.7-3c3.9-4,8-7.9,12.1-11.8c2.3-2.2,3.2-3,3-4.4l-16-20
	C408.9,164.4,407.7,165.2,404.2,167.4z M379.3,205.8c14.3,17.9,11.4,43.9-6.5,58.2l0,0c-17.9,14.3-43.9,11.4-58.2-6.5l0,0
	c-14.3-17.9-11.4-43.9,6.5-58.2l0,0C338.9,185,365,187.9,379.3,205.8L379.3,205.8z"/>
<g>
	<path class="st5" d="M382.6,222.6L382.6,222.6C382.6,222.6,382.6,222.6,382.6,222.6c-0.5-0.2-0.9-0.3-1.4-0.4
		c-0.2,0-0.3-0.1-0.5-0.1c-0.2,0-0.3-0.1-0.5-0.1c-0.2,0-0.3-0.1-0.5-0.1c-0.2,0-0.3-0.1-0.5-0.1c-0.2,0-0.4-0.1-0.5-0.1
		c-0.2,0-0.3,0-0.5-0.1c-0.2,0-0.4-0.1-0.6-0.1c-0.1,0-0.3,0-0.4,0c-0.2,0-0.5,0-0.7-0.1c-0.1,0-0.2,0-0.4,0c-0.3,0-0.7,0-1.1,0
		h-162c-0.4,0-0.8,0-1.1,0c-0.7,0-1.5,0.1-2.2,0.2c-0.4,0.1-0.7,0.1-1.1,0.2c-9.2,1.9-16.4,9.6-17.3,19.2c-0.1,0.7-0.1,1.5-0.1,2.2
		v269.7v61.5c0,9.5,6,17.5,14.4,20.6v0c0,0,0.1,0,0.1,0c0.4,0.1,0.8,0.3,1.3,0.4c0.2,0,0.3,0.1,0.5,0.1c0.2,0,0.3,0.1,0.5,0.1
		c0.2,0,0.3,0.1,0.5,0.1c0.2,0,0.3,0.1,0.5,0.1c0.2,0,0.4,0.1,0.5,0.1c0.2,0,0.3,0,0.5,0.1c0.2,0,0.4,0.1,0.6,0.1c0.1,0,0.3,0,0.4,0
		c0.2,0,0.5,0,0.7,0.1c0.1,0,0.2,0,0.4,0c0.3,0,0.7,0,1.1,0h162c0.8,0,1.5,0,2.2-0.1c10.3-1,18.5-9.2,19.5-19.5
		c0.1-0.7,0.1-1.5,0.1-2.2V304.7v-61.5C397,233.7,391,225.7,382.6,222.6z"/>
	<rect x="199.6" y="249.3" class="st6" width="184.6" height="315.3"/>
	<path class="st7" d="M317.7,239.3h-51.3c-1.1,0-2-0.9-2-2l0,0c0-1.1,0.9-2,2-2h51.3c1.1,0,2,0.9,2,2v0
		C319.6,238.5,318.7,239.3,317.7,239.3z"/>
	<rect x="199.6" y="551.3" class="st8" width="184.6" height="13.2"/>
	<rect x="199.6" y="249.3" class="st8" width="184.6" height="16.7"/>
</g>
<g>
	<path class="st1" d="M524.8,374.5c-0.3-2.7-0.7-5.4-1.9-7.8c-1.5-2.9-4.2-5-6.5-7.3c-4.3-4.3-7.7-9.6-9.7-15.4
		c-1.5-4.5-2.3-9.2-4.5-13.5c-1.3-2.6-3.1-4.9-4.6-7.4c-3.5-5.9-5.4-12.8-10.1-17.7c-0.9,6,0.9,12.3,4.8,16.8
		c1.2,1.4,2.5,2.6,3.4,4.2c1.6,2.8,1.5,6.3,1.7,9.5c0.4,6.1,2.1,12.2,5,17.5c3.1,5.7,7.6,10.8,9.3,17.1c1.2,4.7,0.9,10,3.5,14.1
		c0.3,0.4,0.6,0.9,0.7,1.4c0,0.3,0,0.6-0.1,0.9c-0.1,0.4-0.1,0.8-0.2,1.1c-0.6,3.9-1.2,8.8,2.1,11.7c2.3,2,5.3,2,6.9-0.6
		c1.7-2.7,1.5-6.6,1.4-9.6C525.9,384.5,525.3,379.5,524.8,374.5z"/>
	<path class="st0" d="M530.7,371.4c-1.3-4.5-3.3-8.7-4.3-13.3c-1-4.4-1-9-1-13.5c0-4.9,0-9.9,0-14.8c0-3.1,0-6.2-0.5-9.2
		c-1.1-6.5-4.5-12.6-5.1-19.2c-0.2-2.9,0-5.7-0.3-8.6c-0.2-1.6-0.6-3.3-1.3-4.7c-0.8-1.6-3-1.5-3.8,0.1c-1.6,3.6-2.7,7.4-2,11.3
		c0.4,2.3,1.4,4.4,2.1,6.6c3.3,9.8,1.6,20.7,4.1,30.8c0.8,3,1.9,6,2.1,9.1c0.3,7.5-5.3,14.3-4.8,21.8c0.4,6.1,4.8,11.2,6.7,17.1
		c1,3.3,1.3,6.8,2.4,10c0.9,2.5,2.9,5.6,6,4.8c3-0.7,2.1-3.1,1.9-5.5C532.5,386.5,532.9,379,530.7,371.4z"/>
	<path class="st1" d="M537.5,375.5c-0.1-2.3-0.5-4.7-0.2-7c0.3-1.9,1-3.8,1.6-5.7c1-3.5,1.3-7.2,1.5-10.9c0.5-6.7,0.9-13.4,1.4-20
		c0.7-10.4,1.4-20.8,3.4-31c0.5-2.8,1.1-5.9-0.1-8.5c-0.3-0.5-0.8-1.1-1.4-0.9c-0.4,0.1-0.6,0.6-0.8,1c-4.2,11.5-5.8,23.9-10.6,35.3
		c-1.1,2.7-2.5,5.4-3,8.3c-0.7,3.5-0.3,7-0.2,10.6c0.1,5.1-0.4,10.2-1.8,15c-0.7,2.5-1.7,5-2.1,7.7c-0.5,3.3-0.1,6.6,0.2,9.9
		c0.6,6.3,0.8,12.7,0.6,19c-0.1,3.7,3,3.6,5.1,1.3c1.5-1.6,1.4-3.4,1.9-5.4C534.8,387.6,537.9,382.6,537.5,375.5z"/>
	<path class="st0" d="M517.8,385.6c-2.8-4.5-8.3-7-10.1-12c-0.5-1.3-0.6-2.6-1.2-3.8c-1.2-2.7-4-4.3-6.8-5.5
		c-0.4-0.2-0.8,0.1-0.8,0.5l0,0c0,0.7,0.3,1.3,0.9,1.7c2.1,1.4,3.7,3.6,4.4,6.1c0.8,2.9,0.5,6.1,1.5,8.9c0.9,2.4,2.7,4.3,3.6,6.7
		c0.8,2.2,0.7,4.6,1.1,6.9c0.4,2.3,1.4,4.7,3.5,5.7C521.5,404.3,519.6,388.5,517.8,385.6z"/>
	<path class="st1" d="M549.6,384.1c-0.1,2.2,0.2,4.4-0.6,6.4c-0.5,1.3-1.5,2.3-2.3,3.4c-2.8,4-3.8,9.6-8.2,11.8
		c-0.3,0.1-0.6,0.3-0.9,0.2c-0.4-0.1-0.7-0.5-0.9-0.9c-1.1-2.5,0.1-5.2,0.8-7.8c0.1-0.5,0.2-1,0-1.4c-0.2-0.5-0.8-0.7-1.2-1
		c-0.7-0.7-0.7-1.9-0.5-2.9c0.4-2.5,0.9-5.1,1.5-7.6c0.4-1.4,0.8-2.8,1.6-4c0.9-1.3,2.2-2.3,3.4-3.4c5.4-4.6,9.5-10.7,11.8-17.4
		c0.5-1.5,0.9-3,2-4.1c1-1.1,2.9-1.7,4.1-0.8c0.9,0.6-2.8,6.5-3.2,7.2c-1.2,2-1.2,3.8-1.9,6C553.5,373.3,549.9,378.2,549.6,384.1z"
		/>
	<path class="st0" d="M545.3,386.6c0.8-2.1,1.6-4.2,1.9-6.4c0.3-2.4-0.1-4.9,0.3-7.4c0.5-3.1,2.4-5.9,3.3-8.9
		c0.7-2.2,0.8-4.5,1.2-6.7c1.1-6.4,4.1-12.7,3.3-19.2c-0.2-1.4-0.8-3.1-2.2-3.3c-1.3-0.2-2.4,0.9-2.7,2.2c-0.3,1.2-0.1,2.6,0,3.8
		c0.3,3.6-0.8,7.2-2.8,10.2c-2,2.8-4.9,4.9-6.7,7.9c-2.2,3.6-2.5,8-3.6,12.1c-2.2,8.1-7.8,15.2-8.8,23.5c-0.4,3.3,0.4,7.4,3.4,8.7
		C540.6,407,543.3,391.8,545.3,386.6z"/>
	<path class="st6" d="M529.8,396.9h-1.4h-18.9c-1.4,0-2.4,1.3-2.1,2.7l7.4,31.3c0.2,1,1.1,1.7,2.1,1.7h11.5h1.4h11.5
		c1,0,1.9-0.7,2.1-1.7l7.4-31.3c0.3-1.4-0.7-2.7-2.1-2.7H529.8z"/>
</g>
<g>
	<g>
		<path class="st9" d="M625.7,295.6l2.2,13l6.9-9.2l22.9-22.2l-20.5,8.4c0,0-9.9,5.9-10.3,6.6C626.5,292.8,625.7,295.6,625.7,295.6z
			"/>
		<polygon class="st10" points="614.1,290.9 657.7,277.1 625.7,295.6 		"/>
		<polygon class="st10" points="643.6,303.8 629.3,298.2 657.7,277.1 		"/>
	</g>
	<g>
		<g>
			<path class="st6" d="M578.5,359.2c-0.2-1-0.3-2.1-0.4-3.2c-0.1-1-0.1-2,0-3l1.1,0c0,1,0,1.9,0,2.9c0.1,1,0.2,2,0.3,3
				c0,0.3,0.1,0.6,0.2,0.9l-1.1,0.2C578.6,359.8,578.6,359.5,578.5,359.2z M579.2,346.1c0.6-2.2,1.4-4.4,2.4-6.6l1,0.4
				c-1,2.1-1.7,4.3-2.3,6.5L579.2,346.1z M611.2,334.1c-0.1,0-0.1,0-0.2-0.1l0.3-1c0.1,0,0.1,0,0.2,0.1c0,0,0,0,0.1,0
				c0.6,0,2.1-0.5,2.8-1.2c0.6-0.6,0.9-1.4,1.1-2.4l1.1,0.2c-0.2,1.2-0.7,2.2-1.4,3c-0.9,1-2.7,1.5-3.5,1.6
				C611.5,334.1,611.4,334.1,611.2,334.1z M584.9,333.3c1.2-1.9,2.6-3.8,4.1-5.7l0.8,0.7c-1.5,1.8-2.9,3.7-4.1,5.6L584.9,333.3z
				 M604.7,327.3c-0.3-1-0.5-2-0.6-3.1c0-0.6,0-1.2,0-1.8l1.1,0.1c0,0.6,0,1.1,0,1.7c0.1,1,0.2,2,0.5,2.9c0.2,0.6,0.5,1.3,0.8,1.9
				l-0.9,0.5C605.2,328.7,604.9,328,604.7,327.3z M608,320.5l-0.1,0l0.2-1.1l0.2,0c2.4,0.4,4.7,1.5,6.3,3.2l-0.8,0.7
				C612.2,321.9,610.2,320.9,608,320.5z M594.5,323.1c1-0.7,2.9-1.9,4-2.3c0.8-0.3,1.6-0.5,2.4-0.8l0.3,1c-0.7,0.2-1.5,0.4-2.3,0.7
				c-0.7,0.3-2.1,1.1-3.8,2.2L594.5,323.1z M605.8,315.4c0.9-2.2,2.2-4.2,3.7-6l0.8,0.7c-1.5,1.7-2.7,3.7-3.6,5.7L605.8,315.4z"/>
		</g>
		<g>
			<path class="st6" d="M615.5,305.7c1-0.6,2-1.2,3.1-1.6l-0.4-1c-1.1,0.5-2.2,1-3.2,1.7L615.5,305.7z"/>
		</g>
	</g>
</g>
<g>
	
		<rect x="32.7" y="519.6" transform="matrix(0.9825 0.1861 -0.1861 0.9825 104.4283 3.3586)" class="st11" width="3.3" height="76.3"/>
	<polygon class="st11" points="180.3,595.9 184.2,595.9 169.6,520 166.3,520.6 	"/>
	<polygon class="st11" points="65.4,595.9 69.3,595.9 54.6,520 51.4,520.6 	"/>
	<polygon class="st12" points="144.4,595.9 141.2,596 155.3,520.3 158.6,520.9 	"/>
	<path class="st13" d="M87.8,355.3c-17.5,1.9-40.1,3.8-62.8,42.4c-24.8,42.1-11.8,105,7.8,122.5c19.6,17.5,83.5,39.1,137.3,6.8
		c0,0,32.5-19.6,15.8-52.1c-25.6-50-22-60.4-33.5-80C141,375.2,124.9,351.3,87.8,355.3z"/>
	<path class="st14" d="M25,397.7c15.5-26.3,31-35.6,44.8-39.4c-5.3,5.5-10.8,12.6-16.2,21.8c-24.8,42.1-11.8,105,7.8,122.5
		c17.4,15.5,69.6,34.2,118.7,15.7c-5,5.6-10,8.6-10,8.6c-53.8,32.3-117.7,10.7-137.3-6.8C13.2,502.7,0.2,439.8,25,397.7z"/>
	<polygon class="st15" points="143.9,419.3 148.4,432.8 134.7,427.4 	"/>
	<path class="st8" d="M129.8,379.2c0.9,0,3.4,0.9,7.1,7.8c4.7,8.8,11.5,35.4,11.5,35.4l-20.4,7.6l-2.6-5.5l-4.3-42.7
		C121,381.7,129.5,379.2,129.8,379.2z"/>
	<path class="st6" d="M102.8,375.4c5.8,0,20.2,1.7,26.9,3.8c0,0,4.9,42.1-4.4,74.1c-2.1,7.2,1.7,29.7,1.7,29.7l-60.4-0.8
		c0,0,7.2-54.5,4.5-63.2c-2.7-8.8-2.8-39.4-2.8-39.4s0.4-0.1,13.6-2.3C88.1,376.1,96.6,375.4,102.8,375.4z"/>
	<path class="st16" d="M95.8,561.1c0,0,1.3,15.4,3.8,19.6c2.5,4.3-0.1,11.5-0.3,12.5c-0.1,1-5.2,2.4-13.2,1.6
		c-8-0.9-7.9-2.7-7.2-5.7c0.6-3,4.9-6.8,5.2-9.6c0.3-2.8-2.5-13-2.5-13L95.8,561.1z"/>
	<path class="st0" d="M120.3,470.3c0,0,41.7-2.3,51,3.3c9.3,5.6-1.7,17.1-1.7,17.1s-33.9,14.7-90.7,18
		c-13.4,0.8-14.6-34.9-12.1-37.9C69.3,467.9,120.3,470.3,120.3,470.3z"/>
	<path class="st13" d="M85.2,596c-8.3-0.9-7.2-4.9-6.6-8c0.4-1.9,2.8-4.2,4.2-6.3c0.7,0.6,1.9,1.6,5.5,2.7c3.7,1.1,8.8-1.1,12.1-2.4
		c1.2,4.3,1.2,9.8,1.1,10.6C101.4,593.5,93.4,596.9,85.2,596z"/>
	<path class="st1" d="M89.7,500c1.7,12.6,9.9,75.1,9.9,75.1l-19.1,2.4c0,0-23.5-81.6-22.3-94.1c1.2-12.5,10-13.5,10-13.5
		S85.3,466.8,89.7,500z"/>
	<path class="st16" d="M67.8,384.2c5.6-2.1,8.4,48.6,9.2,69.4c10,1,27.4,0,31.8-0.3c2-0.2,6.7-1.9,8.8-2.1c2.1-0.3,4-0.4,5-0.2
		c0.4,0.1,10.8,4.3,11.7,5.2c1.1,1.2,4.1,4.1,3.6,5.3c-0.5,1.3-5.7-3.5-5.7-3.5l-2.6-1.4c3.2,3.1,9.3,7.2,8.4,8.7
		c-0.9,1.5-6.3-2.7-10.3-5.5c3.4,3,7.5,8.4,6.6,9.3c-0.9,0.8-5.6-5.5-10.7-7.3c-1.9-0.7-3.7,1.2-5.2,1.4c-1.1,0.2-2.8,0.5-3.8,0.2
		l-5.5-1.5c-1.9,0.2-1.9,1.3-3.8,1.7c-2.2,0.5-5.8,1-8.6,1.6c-16.1,3.9-21.4,5.7-26.3,5.7C55.3,470.8,54.4,389.2,67.8,384.2z"/>
	<path class="st6" d="M57,431.8c-1.1-21.4-0.9-47.7,11.1-52.2c4.7-1.8,13.1,8.9,11.6,52.6C73.3,432.7,63.9,433.2,57,431.8z"/>
	<path class="st16" d="M151.7,574.3c0,0-1.7,5.3,1.3,8.9c3,3.5,15.4,7,17,8.9c1.6,1.9,1.5,3.5,1.5,3.5l-34.9-1l0.4-10.5l1.6-7.5
		L151.7,574.3z"/>
	<path class="st13" d="M155.2,584.9c0,0-9,3.6-13.3,1.5c-4.3-2.1-4.2-2.7-5.4-1.9c-1.3,0.8-1.7,11.5-1.7,11.5l39.2,0.3
		c2.7-0.1,4.1-2.1,1.9-3.8c-1.5-1.2-3.3-2-4.3-2.5C168.5,588.1,155.2,584.9,155.2,584.9z"/>
	<path class="st1" d="M150.4,480.2c2.7-5.6,8.8-13,19.6-8.6c10.3,4.2,13,14.6,9.8,25.2c-3.2,10.6-24.6,73.1-25.3,81.7l-17.1,0.1
		c0,0,3.1-49.5,3.9-61.5C142,505.7,145.8,489.9,150.4,480.2z"/>
	<path class="st5" d="M178.1,422.6h-57c-1.5,0-2.9,0.9-3.4,2.3l-17.5,42.8H68.7c-0.9,0-1.6,0.7-1.6,1.6l0,0c0,0.9,0.7,1.6,1.6,1.6
		h89.4c2.5,0,4.7-1.4,5.7-3.7l17.7-39.4C182.6,425.4,180.8,422.6,178.1,422.6z"/>
	<path class="st17" d="M147.4,447.5c-0.4,1.9-2.1,3.2-3.7,2.9c-1.7-0.3-2.7-2.2-2.4-4.1c0.4-1.9,2.1-3.2,3.7-2.9
		C146.7,443.8,147.8,445.6,147.4,447.5z"/>
	<path class="st16" d="M95.9,357.3l-2.8,18.4c0,0,10.2,21.9,16.3,20c5.1-1.6,2-21,2-21s-2.8-10.4-1.9-15.6
		C110.2,353.9,95.9,357.3,95.9,357.3z"/>
	<path class="st18" d="M109.4,359.2c0.8-5.2-13.5-1.8-13.5-1.8l-0.2,1.5c0.4,1,0.9,1.9,1.6,2.6c3.2,3.4,8.2,5.5,12.5,5.7
		C109.3,364.3,109.1,361.3,109.4,359.2z"/>
	<g>
		<path class="st16" d="M93.6,331.3c-0.4-0.1-3.2,20.9,2.1,26.7c5.4,5.8,15.9,7.7,19.7,3.1c4.2-5.1,4-27.7-4.4-33.7
			C102.6,321.6,93.6,331.3,93.6,331.3z"/>
		<path class="st5" d="M107.8,316.3c-6.5,1.3-10.7,5.3-12.2,7c-2.9,0.3-6.9,2-11.1,8.8c-5.1,8.4-1.3,17.7,4.6,22.3
			c5.9,4.6,5.8,9.8,5.8,9.8l0.9-2.7c0.7-2.1,1-4.3,0.7-6.4c-0.1-1.3-0.4-2.7-1-3.9c-1.4-3.1,3.1-5.1,4.3-7.6c1-2,1-6.4,2.5-9.7
			l1.8-2.5c0,0,4.2-3.3,8.3-2.3C116.7,330,116.1,314.6,107.8,316.3z"/>
		<path class="st16" d="M99.6,347.3c0,2.6-1.1,4.7-2.6,4.7c-1.5,0-2.7-2-2.8-4.6c0-2.6,1.1-4.7,2.6-4.7
			C98.4,342.6,99.6,344.7,99.6,347.3z"/>
	</g>
	<path class="st17" d="M106.9,354.4l8.1-0.4c0,0,0,3.1-3.6,3.4C107.1,357.7,106.9,354.4,106.9,354.4z"/>
</g>
<g>
	<ellipse class="st8" cx="291.7" cy="516.4" rx="17.2" ry="10.7"/>
	<path class="st10" d="M291.7,289.8c-42.9,0-77.7,34.8-77.7,77.7c0,23.4,10.4,44.4,26.8,58.7c0.1,0.1,12.1,13.1,14.1,26.8l0.4,8.4
		c0.1,2.7,1.2,5.4,3,7.4c0.2,0.2,0.3,0.4,0.5,0.5h65.7c0.2-0.2,0.3-0.3,0.5-0.5c1.8-2,2.9-4.6,3-7.4l0.4-8.4
		c2-13.7,14.1-26.7,14.1-26.8c16.4-14.2,26.8-35.3,26.8-58.7C369.3,324.5,334.6,289.8,291.7,289.8z"/>
	<path class="st5" d="M291.7,517.6L291.7,517.6c-18.2,0-33-14.8-33-33v-15.5h66v15.5C324.7,502.9,309.9,517.6,291.7,517.6z"/>
	<path class="st19" d="M311.1,426.8c-42.9,0-77.7-34.8-77.7-77.7c0-17.4,5.7-33.5,15.4-46.5c-21,13.9-34.8,37.7-34.8,64.8
		c0,23.4,10.4,44.4,26.8,58.7c0.1,0.1,12.1,13.1,14.1,26.8l0.4,8.4c0.1,2.7,1.2,5.4,3,7.4c0.2,0.2,0.3,0.4,0.5,0.5h65.7
		c0.2-0.2,0.3-0.3,0.5-0.5c1.8-2,2.9-4.6,3-7.4l0.4-8.4c2-13.7,14.1-26.7,14.1-26.8c4.2-3.6,7.9-7.6,11.2-12
		C341.5,422.1,326.9,426.8,311.1,426.8z"/>
	<g>
		<polygon class="st6" points="291.1,405.1 275.7,337.8 262.1,376.9 258.2,375.6 276.5,322.6 292.3,391.2 308.4,351.9 323.3,377.1 
			319.7,379.2 309.1,361.3 		"/>
	</g>
	<g>
		<path class="st5" d="M271.7,479.3l-0.4,0c-1.9,0.2-3.7-1.2-3.9-3.2l-10.8-104.2c-0.2-2,1.2-3.7,3.2-3.9l0.4,0
			c2-0.2,3.7,1.2,3.9,3.2l10.8,104.2C275,477.3,273.6,479.1,271.7,479.3z"/>
		<path class="st5" d="M311.9,479.3L311.9,479.3c2.1,0.2,3.9-1.3,4.1-3.3l10.8-103.8c0.2-2.1-1.3-3.9-3.3-4.1l0,0
			c-2.1-0.2-3.9,1.3-4.1,3.3l-10.8,103.9C308.3,477.3,309.8,479.1,311.9,479.3z"/>
	</g>
	<path class="st8" d="M323.8,476.5h-64.3c-2,0-3.7-1.6-3.7-3.7v0c0-2,1.6-3.7,3.7-3.7h64.3c2,0,3.7,1.6,3.7,3.7v0
		C327.5,474.8,325.9,476.5,323.8,476.5z"/>
	<path class="st8" d="M323.8,491.1h-64.3c-2,0-3.7-1.6-3.7-3.7v0c0-2,1.6-3.7,3.7-3.7h64.3c2,0,3.7,1.6,3.7,3.7l0,0
		C327.5,489.5,325.9,491.1,323.8,491.1z"/>
	<path class="st8" d="M323.8,507.5h-64.3c-2,0-3.7-1.6-3.7-3.7v0c0-2,1.6-3.7,3.7-3.7h64.3c2,0,3.7,1.6,3.7,3.7v0
		C327.5,505.9,325.9,507.5,323.8,507.5z"/>
</g>
<g>
	<path class="st13" d="M250.4,198.9H108.8c-4.9,0-8.9,4-8.9,8.9v58.4c0,4.9,4,8.9,8.9,8.9h111.4c4.5,6.3,12.7,17.6,13.4,17.6
		c0.7,0-0.6-10.6-1.5-17.6h18.2c4.9,0,8.9-4,8.9-8.9v-58.4C259.2,202.9,255.3,198.9,250.4,198.9z"/>
	<path class="st17" d="M159.5,221.7h-39.4c-1.1,0-1.9-0.9-1.9-1.9l0,0c0-1.1,0.9-1.9,1.9-1.9h39.4c1.1,0,1.9,0.9,1.9,1.9v0
		C161.4,220.8,160.6,221.7,159.5,221.7z"/>
	<path class="st17" d="M145.5,234.3h-25.4c-1.1,0-1.9-0.9-1.9-1.9l0,0c0-1.1,0.9-1.9,1.9-1.9h25.4c1.1,0,1.9,0.9,1.9,1.9v0
		C147.4,233.4,146.5,234.3,145.5,234.3z"/>
	<path class="st17" d="M185,234.3h-32.1c-1.1,0-1.9-0.9-1.9-1.9l0,0c0-1.1,0.9-1.9,1.9-1.9H185c1.1,0,1.9,0.9,1.9,1.9v0
		C186.9,233.4,186,234.3,185,234.3z"/>
	<path class="st17" d="M239.8,234.3h-46.4c-1.1,0-1.9-0.9-1.9-1.9l0,0c0-1.1,0.9-1.9,1.9-1.9h46.4c1.1,0,1.9,0.9,1.9,1.9v0
		C241.7,233.4,240.8,234.3,239.8,234.3z"/>
	<path class="st17" d="M240,221.7h-68.7c-1.1,0-1.9-0.9-1.9-1.9l0,0c0-1.1,0.9-1.9,1.9-1.9H240c1.1,0,1.9,0.9,1.9,1.9v0
		C241.9,220.8,241.1,221.7,240,221.7z"/>
	<path class="st17" d="M240,259H120.1c-1.1,0-1.9-0.9-1.9-1.9l0,0c0-1.1,0.9-1.9,1.9-1.9H240c1.1,0,1.9,0.9,1.9,1.9l0,0
		C241.9,258.1,241.1,259,240,259z"/>
	<path class="st17" d="M180.2,246.8h-60.1c-1.1,0-1.9-0.9-1.9-1.9v0c0-1.1,0.9-1.9,1.9-1.9h60.1c1.1,0,1.9,0.9,1.9,1.9l0,0
		C182.1,245.9,181.2,246.8,180.2,246.8z"/>
	<path class="st17" d="M240,246.8h-52.8c-1.1,0-1.9-0.9-1.9-1.9l0,0c0-1.1,0.9-1.9,1.9-1.9H240c1.1,0,1.9,0.9,1.9,1.9v0
		C241.9,245.9,241.1,246.8,240,246.8z"/>
</g>
<path class="st11" d="M670.4,594.1l-3.8,0c0.5-36.7,0.9-92.6,0.1-95.7c0,0,0.1,0.2,0.3,0.4l3.1-1.8c0.5,0.6,0.8,0.9,0.9,16.5
	c0.1,8,0,19.1-0.1,33C670.7,570.1,670.4,593.9,670.4,594.1z"/>
<g>
	<path class="st11" d="M702,493.6l-2-1.7c7.5-8.8,11.6-25.6,11.9-48.6c0.2-17.5-1.9-32.5-1.9-32.7l2.6-0.4c0,0.2,2.1,15.3,1.9,33
		c-0.1,10.4-1,19.7-2.7,27.5C709.7,480.7,706.4,488.3,702,493.6z"/>
</g>
<path class="st13" d="M692.8,367c1.1,0,32-3.7,32.7,1.8c0.7,5.5,2.2,48.6-5.2,50c-7.4,1.5-43-5.2-43-5.2L692.8,367z"/>
<path class="st13" d="M629.9,496.5c1.6-0.3-4,5.5,0,7.4c4,1.8,65.1,0.7,69.9-1.5c4.8-2.2,10.7-5.9,8.5-10.7
	c-2.2-4.8-39.8-11-39.8-11l-34.1,9.2C634.3,489.8,628,496.8,629.9,496.5z"/>
<path class="st5" d="M644,350c-0.3-7,0.7-13.9,3.9-20.4c2.7-5.6,9.3-8.8,15.4-8.8c19.3,0,21.7,25.4,34,35.3c3.7,3,7.9,5.4,11.5,8.7
	c13.1,12,7.2,34.1-4.8,44.5c-8.3,7.3-21.5,11.4-31.7,5.7c-5.4-3-9.4-7.9-12.3-13.3c-4.1-7.7-6.8-16.5-9.7-24.7
	C647,368.3,644.4,359.2,644,350z"/>
<path class="st18" d="M590.9,423.2l41.9-11.7c0,0,8.8-11.9,20.2-27.8c3.7,3.7,5.8,9.3,9.5,13l-27.8,30.7c-1,1.1-2.4,1.7-3.9,1.7
	l-38.5,0.1l-13.2,1.1v-8.4L590.9,423.2z"/>
<path class="st10" d="M651.2,414.3c0,0,14.4-14.8,18.1-21.2c3.7-6.4-2.5-2.2-8.9-3.9c-2.4-0.6-1.8-14.8-6.4-10.2
	c-7.5,7.5-16.9,20.7-16.9,20.7L651.2,414.3z"/>
<path class="st6" d="M671.7,372.5c0,0,12.9-2.6,18.8,2.4c5.9,4.9-1.3,48.7-1.3,56c0,7.3,4,27.8,4,27.8s-39.1,6.9-45.4-4
	c0,0-1.8-41.5-1.5-46.7c0.3-5.2,6.1-26.6,7.7-28.9C655.7,376.7,671.7,372.5,671.7,372.5z"/>
<path class="st16" d="M671.8,352.6c0,0,0.1,0.4,0.2,1c0.6,3.2,2.8,13.6,4.4,16.5c1.8,3.5-6.3,14.6-14.1,13.2
	c-2.3-0.4,2-10.2,1.8-11.2c-0.4-2-0.9-4.7-1.5-7.5c-0.3-1.6-0.6-3.2-0.9-4.6c-0.8-4.2-1.5-7.7-1.5-7.7L671.8,352.6z"/>
<path class="st18" d="M672,353.6c-0.1-0.7-0.2-1-0.2-1l-11.8-0.3c0,0,0.7,3.5,1.5,7.7c0.3,1.5,0.6,3.1,0.9,4.6
	c1.8-0.3,3.7-1.1,5.6-2.8c2.1-1.8,3.4-4,4.2-6.3C672.2,354.7,672.1,354.1,672,353.6z"/>
<path class="st16" d="M663.9,325.9c0,0,5.5-0.6,9,3.8c3.5,4.5,7.2,18.3-1.4,25.9c-8.6,7.5-17.1-1-18.4-10
	C651.8,336.5,651.3,325.6,663.9,325.9z"/>
<path class="st16" d="M650.5,345.5c1,2,2.8,3.1,3.9,2.5c1.1-0.6,1.2-2.8,0.1-4.8c-1-2-2.8-3.1-3.9-2.5
	C649.5,341.3,649.5,343.5,650.5,345.5z"/>
<path class="st5" d="M663.3,324.4c0,0,7.4,13.2,12.7,13.8c5.3,0.6,6,7.6,6,7.6s-1.9-16.1-7.1-19.2
	C669.6,323.5,663.3,324.4,663.3,324.4z"/>
<path class="st16" d="M674.6,341.5c-0.4,2.3,0.4,4.5,1.9,4.8c1.5,0.3,3.1-1.3,3.5-3.7c0.4-2.3-0.4-4.5-1.9-4.8
	C676.6,337.5,675,339.2,674.6,341.5z"/>
<path class="st11" d="M691.3,589.9h-45.2c-2.1,0-3.8,1.7-3.8,3.8l0,0c0,0.4,0.3,0.7,0.7,0.7h51.4c0.4,0,0.7-0.3,0.7-0.7l0,0
	C695,591.6,693.3,589.9,691.3,589.9z"/>
<g>
	<path class="st16" d="M624.8,558.6c0,0,11.9,14.2,12,15.5c0.1,1.2-0.5,14.8-1.9,16c-1.4,1.2-5.6,2.1-4.2,3.5
		c1,1.1,8.8,0.8,13.9,0.5c1.5-0.1,3.4-12.1,4-13.8c0.9-2.6,3-8.3,2.2-10.1c-0.4-0.9-2.2-2.7-4.8-4.3c-2.7-1.8-13.1-16.2-13.1-16.2
		L624.8,558.6z"/>
	<path class="st5" d="M645.7,565.8c0,0-8,22.5-11.1,23.6c-0.8,0.3-4.8,1-5.6,2.8c-0.2,0.5,0,2.3,0,2.3h16.6c0,0,2.1-9.9,2.9-14.2
		c0,0,4.4-10.6,3.9-11.6C652,567.6,645.7,565.8,645.7,565.8z"/>
	<path class="st16" d="M553.6,565.4c0,0-9.7,13.7-8.9,18c0.5,2.3,2.5,5.3,1.3,7.5c-1.2,2.2-2.5,2.7-2.5,2.7l-30.3,0.5
		c-1.6,0-0.6-1,0.8-2c2.2-1.6,3.9-2.7,10.9-6c0.5-0.2,2.1-1.3,2.7-1.6c1.5-0.9,3-2.4,4.3-3.8c2.2-2.4,11.7-22.1,11.7-22.1
		L553.6,565.4z"/>
	<path class="st5" d="M527.6,584.5c8,2.1,13.9,0.7,17.2-0.7c0.9,2.4,2,5.4,1.4,7.2c-0.7,2.1-1.8,2.6-2.7,2.6
		c-7.3,0.2-26.8,0.5-32.4,0.5c-0.8,0-1.2-0.9-0.7-1.5C511.9,591,527,584.8,527.6,584.5z"/>
	<path class="st0" d="M588.7,481.1c0,0,12,13.7,15.1,15.9c3.1,2.2,32.5,56.3,32.5,56.3l-10.5,7.6c0,0-26.3-32.8-38.6-50.3
		c-10.4-14.8-6.6-13.9-12.7-22.9c-3.4-5-2.6-11.7,1.8-15.7c0.6-0.5,1.2-1,1.8-1.6c9.1-7.6,71.4-16.1,71.4-16.1l39.8,3.9
		c0,0-32.5,22.8-33.8,23.4c-1.2,0.6-44.9,7-45.9,7C608.7,488.7,588.7,481.1,588.7,481.1z"/>
	<path class="st1" d="M693.3,458.6c0,0,6.8,20.5-3.4,30.1c-10.2,9.6-71.1,8.5-91.2,8.5c0,0-8.2,22.5-9.1,26.1
		c-0.9,3.6-40.7,50.7-40.7,50.7l-10.9-7c0,0,42.8-83.2,46.2-86.9c3.3-3.6,51-18.2,62.9-21.6C658.8,455.3,693.3,458.6,693.3,458.6z"
		/>
</g>
<path class="st11" d="M671.6,586.2H666c-1.6,0-3,1.3-3,3l0,0c0,1.6,1.3,3,3,3h5.5c1.6,0,3-1.3,3-3l0,0
	C674.5,587.5,673.2,586.2,671.6,586.2z"/>
<rect x="481.9" y="436.9" class="st11" width="3.2" height="157.2"/>
<rect x="657.7" y="436.9" class="st11" width="3.2" height="157.2"/>
<path class="st16" d="M614.1,421.8l36.4-8c0,0,13.1-16.9,25.8-31.4c3.7,3.7,5.8,9.3,9.5,13L658,426c-1,1.1-2.4,1.7-3.9,1.7
	l-38.5,0.1l-13.2,1.1v-8.4L614.1,421.8z"/>
<path class="st10" d="M674.4,412.9c0,0,14.4-14.8,18.1-21.2c3.7-6.4,1-17.2-5.4-18.8c-6.4-1.7-26.7,25.4-26.7,25.4L674.4,412.9z"/>
<g>
	<path class="st13" d="M539.4,380.4h60c1.6,0,3,1,3.6,2.4l18.5,45h33.1c0.9,0,1.7,0.7,1.7,1.7l0,0c0,0.9-0.7,1.7-1.7,1.7h-94.1
		c-2.6,0-4.9-1.5-6-3.9l-18.6-41.4C534.7,383.3,536.5,380.4,539.4,380.4z"/>
	<path class="st17" d="M571.7,406.6c0.4,2,2.2,3.4,3.9,3c1.8-0.4,2.9-2.3,2.5-4.3c-0.4-2-2.2-3.4-3.9-3
		C572.4,402.7,571.3,404.6,571.7,406.6z"/>
</g>
<path class="st11" d="M660.8,438.8H481.7c-2.1,0-3.8-1.7-3.8-3.8l0,0c0-2.1,1.7-3.8,3.8-3.8h179.2c2.1,0,3.8,1.7,3.8,3.8l0,0
	C664.6,437.1,662.9,438.8,660.8,438.8z"/>
<path class="st17" d="M660.5,350.6l8.1-0.4c0,0,0,3.1-3.6,3.4C660.7,354,660.5,350.6,660.5,350.6z"/>
<path class="st13" d="M470.3,278c-2.2-14.2-15-24.4-28.4-17.5c-3,1.5-7.1,4.7-9.2,7.4c-5.6,7.2-7.1,16.2-12.9,23.2
	c2.1,1.6,4.7,3.3,7.8,5l3.6-4.8l-1.2,6c9,4.3,21.7,7.9,39.1,7.8C471.3,295.1,471.5,285.6,470.3,278z"/>
<path class="st16" d="M502.3,430.9c-1.3-1.1-2.9-0.6-7.5-2.7c-0.9-0.4-3.2-1.1-4.3-1.3c-0.2,0-0.4-0.2-0.4-0.4
	c-1.4-5.3-7.5-29.7-8.2-36.8c-0.7-7.2-5.3-37.8-6-42.4c0-0.3-0.4-0.5-0.7-0.4l-13.4,3.7c-0.3,0.1-0.4,0.4-0.4,0.6
	c0.8,3.6,6,26.5,7.5,38.1c1.2,9.2,15,38.8,15.2,40.7c0,0,0,0,0,0.1c0.1,0.6,0.6,1,1.1,1c3.4,0,14.3,0,14.9,0
	C500.7,431.1,502.7,431.2,502.3,430.9z"/>
<path class="st0" d="M472.5,334.1c-7.1-21.6-15.1-20.6-15.1-20.6l6.1,45.3c4.4-1.2,10.1-3.9,14.5-5.1
	C476.6,346.8,474.3,339.4,472.5,334.1z"/>
<path class="st16" d="M474.5,592.4c-2-1.5-3.7-2.5-10.2-5.7c-0.4-0.2-2-1.2-2.5-1.5c-1.4-0.9-2.8-2.2-4.1-3.6
	c-1.2-1.3-1.7-5.5-2-8.8c0.7-7.5,11.5-127.2,13.8-140.2c2.4-13.4-1.2-33.8-1.2-33.8l-8.4-3.2l-15.9,55l1.3,41.8
	c0,0-3.7,12.1-4.2,19.3c-0.5,7.2,5.4,65.7,5.4,65.7h0c0,2.1-0.1,4-0.3,5.2c-0.4,2.2-2.8,6.7-1.7,8.7c1.1,2.1,2.4,2.6,2.4,2.6
	l28.5,0.5C476.8,594.3,475.7,593.3,474.5,592.4z"/>
<path class="st16" d="M431.2,394.5c0,0-9.9,14.9-12.2,27.3c-2.4,12.4,1.7,50.3-2.8,66.5c-2.5,8.8-11.8,22.3-13.2,33.6
	c-1.4,11.3-6.3,44-6.3,44h0c-0.7,3.4-1.9,7.7-3.4,9.6c-0.9,1.2-2.6,2.7-3.7,4.9c-1.7,3.4-0.8,8.5,0.5,11.2c0.7,1.4,0,1.4,1.4,1.9
	c4.4,1.4,9.1-0.9,11-5.2c1-2.4,2-5.5,2.2-9.5c0.2-4.2,0.9-7.6,1.6-10l0,0l31.6-77.6l22.9-67l5.9-34.5L431.2,394.5z"/>
<path class="st13" d="M403.3,586.2c-6.8,1.3-11.4-2.8-13.8-5.8c-1.7,3.4-2.6,8.5-1.3,11.3c1.1,2.5,4.4,2.4,7,2.5
	c2.7,0.1,4.9-1.4,6.2-3.8C402.1,589.2,402.8,587.8,403.3,586.2z"/>
<path class="st13" d="M461.7,585.2c-7.5,1.9-13.1,0.6-16.2-0.6c-0.8,2.3-1.9,5.1-1.3,6.8c0.7,2,1.7,2.5,2.5,2.5
	c6.9,0.2,25.2,0.4,30.5,0.5c0.7,0,1.1-0.8,0.7-1.4C476.5,591.4,462.3,585.5,461.7,585.2z"/>
<path class="st6" d="M437.7,491.4c0.6,0,1.2,0.1,1.8,0.1c0,0,0.1,0,0.1,0c0.6,0,1.2,0.1,1.8,0.1c0,0,0.1,0,0.1,0
	c0.6,0,1.2,0.1,1.8,0.1c0,0,0.1,0,0.1,0c0.6,0,1.2,0,1.8,0.1c6.8,0.2,15.1,0.1,20.4-0.8c2.7-27.3,3.7-52.2,4.8-57.8
	c2.4-13.4-2.1-34.5-2.1-34.5l-2.2-0.4l1.4-7.8l-36.7,4.6c0,0-10.3,14.9-12.7,27.3c-2.4,12.4,1.8,50.3-2.9,66.5
	C415,489,425.5,490.6,437.7,491.4z"/>
<path class="st1" d="M439.3,309.6c0,0-13.1-0.8-18.3,4.8c-5.2,5.7,11.5,50.4,12.4,57.7c0.9,7.2-4.8,26.4-4.8,26.4s30.8,6.2,39.6,0.4
	c0,0,0.9-51.8,0-57c-0.9-5.1-8.8-26.1-10.7-28.1C455.6,311.6,439.3,309.6,439.3,309.6z"/>
<path class="st16" d="M443.6,292c0,0-0.1,0.4-0.2,1c-0.6,3.2-2.8,13.6-4.4,16.5c-1.8,3.5,6.3,14.6,14.1,13.2
	c2.3-0.4-2-10.2-1.8-11.2c0.4-2,0.9-4.7,1.5-7.5c0.3-1.6,0.6-3.2,0.9-4.6c0.8-4.2,1.5-7.7,1.5-7.7L443.6,292z"/>
<path class="st18" d="M443.4,293.1c0.1-0.7,0.2-1,0.2-1l11.7-0.3c0,0-0.7,3.5-1.5,7.7c-0.3,1.5-0.6,3.1-0.9,4.6
	c-1.8-0.3-3.7-1.1-5.6-2.8c-2.1-1.8-3.4-4-4.2-6.3C443.2,294.2,443.3,293.5,443.4,293.1z"/>
<path class="st16" d="M451.5,265.3c0,0-5.5-0.6-9,3.8c-3.5,4.5-7.2,18.4,1.4,25.9c8.6,7.5,17.1-1,18.4-10
	C463.5,276,464,265,451.5,265.3z"/>
<path class="st16" d="M464.8,284.9c-1,2-2.7,3.1-3.8,2.5c-1.1-0.6-1.2-2.8-0.1-4.8c1-2,2.7-3.1,3.8-2.5
	C465.8,280.8,465.8,282.9,464.8,284.9z"/>
<path class="st13" d="M452.1,263.8c0,0-7.4,13.2-12.7,13.8c-5.3,0.6-6,7.6-6,7.6s1.9-16.2,7.1-19.3
	C445.8,262.9,452.1,263.8,452.1,263.8z"/>
<path class="st13" d="M441.5,337.8l38.5,15.1c1.2,0.5,1.8,1.8,1.3,3l-20.2,51.4c-0.5,1.2-1.8,1.8-3,1.3l-38.5-15.1
	c-1.2-0.5-1.8-1.8-1.3-3l20.2-51.4C438.9,337.9,440.3,337.4,441.5,337.8z"/>
<path class="st11" d="M470.6,347.3c0.1-0.2,0-0.5-0.3-0.6l-16.1-6.3c-0.2-0.1-0.5,0-0.6,0.3l-0.7,1.7l17,6.7L470.6,347.3z"/>
<path class="st11" d="M463.1,341.6c-1.4-0.6-3,0.1-3.5,1.5c-0.6,1.4,0.1,3,1.5,3.5c1.4,0.6,3-0.1,3.5-1.5
	C465.2,343.7,464.5,342.1,463.1,341.6z M461.5,345.7c-0.9-0.4-1.3-1.4-1-2.3c0.4-0.9,1.4-1.3,2.3-1c0.9,0.4,1.3,1.4,1,2.3
	C463.4,345.6,462.4,346.1,461.5,345.7z"/>
<path class="st5" d="M470.5,346.9c0.1,0.1,0.2,0.3,0.1,0.5L470,349l-17-6.7c-0.5,1.2,0.1,2.5,1.3,2.9l12.8,5
	c1.2,0.5,2.5-0.1,2.9-1.3l0.7-1.7C470.7,347.2,470.6,347,470.5,346.9z"/>
<path class="st16" d="M440.9,281c0.4,2.3-0.4,4.5-1.9,4.8c-1.5,0.3-3.1-1.3-3.5-3.7c-0.4-2.3,0.4-4.5,1.9-4.8
	C438.9,277,440.4,278.6,440.9,281z"/>
<path class="st16" d="M476.2,377.9c-0.3-0.3-0.2-0.4-0.2-0.4c0.4-0.5,0.5-2.3-0.1-2.8c-0.6-0.5-3.7-1-4-1.2
	c-0.3-0.2-0.7-0.6-1.2-0.7c-0.5-0.1-3.6-1.7-4.3-1.9c-0.6-0.1-2.9,0.7-4.2,0.9c-1.3,0.2-3.4,1.4-4,1.6c-0.4,0.2-9.1-1.2-11.3-1.5
	c-2.4-0.4-4.3-0.8-4.3-0.8s-14.1-3.7-28.9-6.4l4-12l-13.9-3.2c-1.7,6.9-5.4,17.4-5.9,20.7c-0.9,6.5,21.2,8.2,40.9,9.4h0
	c2.2,0.1,4.2,0.3,6.1,0.4c2.5,0.2,6.7,1,8.7,1.3l0,0c1.2,0.3,2.9,0.7,3,0.9c0.3,0.2,2.5,0.9,2.7,0.9c0.2,0,0.9,0.6,1.2,0.8
	c0.3,0.2,4.8,0.8,5.5,1c0.7,0.1,2.4-0.1,2.4-0.1l3,0.3c2.2,0.2,1.7-2.1,1.7-2.1c1,0.1,1.6-0.2,1.8-0.8c0.2-0.6,0.1-1.3,0.1-1.4
	c0-0.1,0.4-0.1,0.4-0.1c0.7,0.1,1.2-0.6,1.3-1.1C476.7,379,476.4,378.2,476.2,377.9z"/>
<path class="st1" d="M402.3,349.6c0,0,6.7-26.4,11.9-33c5.2-6.7,17.8-8.4,22.3-2.3c4.5,6-16.5,39.5-16.5,39.5L402.3,349.6z"/>
<path class="st16" d="M499.2,429.8c0.1,0,3.3,0.5,4.3,0.5c1.1,0,1.9,0.9,1.9,0.9l-9.8-0.1c0,0,0.8-1.1,1-1.1
	C496.8,429.9,499.2,429.8,499.2,429.8z"/>
<path class="st17" d="M660.5,350.6l8.1-0.4c0,0,0,3.1-3.6,3.4C660.7,354,660.5,350.6,660.5,350.6z"/>
<path class="st17" d="M447.4,289.5l8,1.6c0,0-0.8,3-4.3,2.4C446.7,292.7,447.4,289.5,447.4,289.5z"/>
<path class="st9" d="M596.5,252.3c-2.4-1.6-4.8-3.1-7.1-4.7c-0.4-0.3-0.8-1.1-0.8-1.6c0.3-3.3,0.8-6.5,1-9.8c0.1-1,0.3-1.5,1.2-1.8
	c3.2-1.3,6.4-2.7,9.6-4c0.5-0.2,1-0.5,1.9-0.8c-1.6-4.9-3.1-9.8-4.7-14.7c-4.1,0.8-7.9,1.6-11.6,2.4c-1.3,0.3-2,0.2-2.9-1.1
	c-1.7-2.5-3.8-4.7-5.7-7.1c-0.3-0.4-0.4-1.1-0.3-1.5c1.2-3.3,2.5-6.6,3.9-9.8c0.7-1.5,0.3-2.4-1-3.1c-0.5-0.3-1-0.7-1.4-1.1
	c-2.4-1.3-4.8-2.5-7.1-3.8c-0.3-0.1-0.6-0.1-0.9-0.2c-2.9-1.2-2.3-1.1-4,1.3c-2,3-3.9,5.9-5.6,8.5c-4.4-0.4-8.6-0.7-12.8-1.1
	c-1.6-3.9-3.4-8-5.1-12.1c-5.2,0.7-10,2.4-14.7,4.7c0.8,4,1.6,8,2.5,11.9c0.2,0.7,0.1,1.1-0.6,1.7c-2.7,2.1-5.4,4.2-7.9,6.4
	c-0.7,0.6-1.2,0.6-2,0.3c-3.3-1.4-6.6-2.6-9.9-4c-0.8-0.3-1.3-0.3-2,0.5c-2.7,3.6-4.5,7.6-6,11.8c-0.3,0.8,0.1,1.2,0.7,1.6
	c2.9,1.9,5.8,3.8,8.7,5.7c0.8,0.5,1.1,1,0.9,2.1c-0.6,3.8-0.9,7.5-1.3,11.6c-3.6,1.5-7.6,3.2-11.6,4.9c0.7,5.3,2.2,10.2,4.6,14.9
	c4.4-0.9,8.7-1.9,12.6-2.7c2.4,2.8,4.7,5.4,7,7.9c0.9,0.9,1.1,1.7,0.5,2.8c-1.4,3.1-2.6,6.3-3.9,9.5c-0.2,0.6-0.7,1.4,0.2,1.9
	c4,2.1,8,4.1,11.9,6.2c0.8,0.4,1.4,0.2,1.9-0.6c1.9-3,3.9-5.9,5.7-8.9c0.7-1.2,1.5-1.2,2.7-1.1c3,0.4,5.9,0.7,8.9,0.7
	c1.3,0,1.8,0.4,2.2,1.5c1.4,3.7,3,7.3,4.4,10.8c3.2,0,11.8-2.8,14.9-4.8c-0.8-3.9-1.7-7.8-2.6-11.8c-0.2-1,0.1-1.4,0.8-2
	c2.4-1.9,4.7-4,7.1-6c0.4-0.3,1.2-0.5,1.7-0.3c2.9,1.1,5.8,2.4,8.8,3.6c1.6,0.7,2.3,1,2.9,0.6l6.7-12.7
	C599.2,254,598.5,253.5,596.5,252.3z M571.3,248c-6,11.3-20,15.6-31.3,9.6h0c-11.3-6-15.6-20-9.6-31.3l0,0c6-11.3,20-15.6,31.3-9.6
	l0,0C573,222.7,577.3,236.7,571.3,248L571.3,248z"/>
<path class="st20" d="M660.4,199.3c-1.3-0.9-2.6-1.7-3.8-2.5c-0.2-0.2-0.4-0.6-0.4-0.8c0.2-1.8,0.4-3.5,0.5-5.3c0-0.5,0.2-0.8,0.7-1
	c1.7-0.7,3.5-1.4,5.2-2.2c0.3-0.1,0.6-0.2,1-0.5c-0.8-2.7-1.7-5.3-2.5-8c-2.2,0.5-4.3,0.8-6.3,1.3c-0.7,0.2-1.1,0.1-1.6-0.6
	c-0.9-1.3-2.1-2.5-3.1-3.8c-0.2-0.2-0.2-0.6-0.1-0.8c0.7-1.8,1.3-3.6,2.1-5.3c0.4-0.8,0.2-1.3-0.6-1.7c-0.3-0.1-0.5-0.4-0.8-0.6
	c-1.3-0.7-2.6-1.4-3.9-2c-0.2,0-0.3,0-0.5-0.1c-1.6-0.6-1.3-0.6-2.1,0.7c-1.1,1.6-2.1,3.2-3,4.6c-2.4-0.2-4.6-0.4-6.9-0.6
	c-0.9-2.1-1.8-4.3-2.8-6.6c-2.8,0.4-5.4,1.3-7.9,2.5c0.5,2.2,0.9,4.3,1.3,6.5c0.1,0.4,0.1,0.6-0.3,0.9c-1.5,1.1-2.9,2.3-4.3,3.5
	c-0.4,0.3-0.7,0.4-1.1,0.2c-1.8-0.7-3.6-1.4-5.4-2.2c-0.4-0.2-0.7-0.2-1.1,0.3c-1.5,2-2.4,4.1-3.2,6.4c-0.2,0.5,0.1,0.6,0.4,0.9
	c1.6,1,3.1,2.1,4.7,3.1c0.5,0.3,0.6,0.5,0.5,1.1c-0.3,2-0.5,4.1-0.7,6.3c-1.9,0.8-4.1,1.7-6.3,2.6c0.4,2.9,1.2,5.5,2.5,8
	c2.4-0.5,4.7-1,6.8-1.4c1.3,1.5,2.5,2.9,3.8,4.3c0.5,0.5,0.6,0.9,0.3,1.5c-0.7,1.7-1.4,3.4-2.1,5.1c-0.1,0.3-0.4,0.7,0.1,1
	c2.2,1.1,4.3,2.2,6.5,3.4c0.5,0.2,0.7,0.1,1-0.3c1-1.6,2.1-3.2,3.1-4.8c0.4-0.6,0.8-0.7,1.4-0.6c1.6,0.2,3.2,0.4,4.8,0.4
	c0.7,0,0.9,0.2,1.2,0.8c0.8,2,1.6,3.9,2.4,5.8c1.7,0,6.4-1.5,8.1-2.6c-0.5-2.1-0.9-4.2-1.4-6.4c-0.1-0.5,0-0.8,0.4-1.1
	c1.3-1,2.5-2.2,3.8-3.2c0.2-0.2,0.7-0.3,0.9-0.2c1.6,0.6,3.2,1.3,4.7,1.9c0.9,0.4,1.2,0.5,1.6,0.3l3.6-6.8
	C661.8,200.2,661.4,200,660.4,199.3z M646.8,197c-3.2,6.1-10.8,8.4-16.9,5.2l0,0c-6.1-3.2-8.4-10.8-5.2-16.9l0,0
	c3.2-6.1,10.8-8.4,16.9-5.2l0,0C647.7,183.3,650,190.9,646.8,197L646.8,197z"/>
<rect x="481.9" y="447.1" class="st11" width="178.2" height="1.7"/>
</svg>
